<svg width="78" height="19" viewBox="0 0 78 19" fill="none" xmlns="http://www.w3.org/2000/svg">
<path d="M0.917614 18V0.545454H7.30966C8.5483 0.545454 9.57386 0.75 10.3864 1.15909C11.1989 1.5625 11.8068 2.1108 12.2102 2.80398C12.6136 3.49148 12.8153 4.26705 12.8153 5.13068C12.8153 5.85795 12.6818 6.47159 12.4148 6.97159C12.1477 7.46591 11.7898 7.86364 11.3409 8.16477C10.8977 8.46023 10.4091 8.67614 9.875 8.8125V8.98295C10.4545 9.01136 11.0199 9.19886 11.571 9.54545C12.1278 9.88636 12.5881 10.3722 12.9517 11.0028C13.3153 11.6335 13.4972 12.4006 13.4972 13.304C13.4972 14.196 13.2869 14.9972 12.8665 15.7074C12.4517 16.4119 11.8097 16.9716 10.9403 17.3864C10.071 17.7955 8.96023 18 7.60795 18H0.917614ZM3.55114 15.7415H7.35227C8.61364 15.7415 9.51705 15.4972 10.0625 15.0085C10.608 14.5199 10.8807 13.9091 10.8807 13.1761C10.8807 12.625 10.7415 12.1193 10.4631 11.6591C10.1847 11.1989 9.78693 10.8324 9.26989 10.5597C8.75852 10.2869 8.15057 10.1506 7.44602 10.1506H3.55114V15.7415ZM3.55114 8.09659H7.07955C7.67045 8.09659 8.2017 7.98295 8.6733 7.75568C9.15057 7.52841 9.52841 7.21023 9.80682 6.80114C10.0909 6.38636 10.233 5.89773 10.233 5.33523C10.233 4.61364 9.98011 4.00852 9.47443 3.51989C8.96875 3.03125 8.19318 2.78693 7.14773 2.78693H3.55114V8.09659ZM24.7088 12.571V4.90909H27.2656V18H24.7599V15.733H24.6236C24.3224 16.4318 23.8395 17.0142 23.1747 17.4801C22.5156 17.9403 21.6946 18.1705 20.7116 18.1705C19.8707 18.1705 19.1264 17.9858 18.4787 17.6165C17.8366 17.2415 17.331 16.6875 16.9616 15.9545C16.598 15.2216 16.4162 14.3153 16.4162 13.2358V4.90909H18.9645V12.929C18.9645 13.821 19.2116 14.5312 19.706 15.0597C20.2003 15.5881 20.8423 15.8523 21.6321 15.8523C22.1094 15.8523 22.5838 15.733 23.0554 15.4943C23.5327 15.2557 23.9276 14.8949 24.2401 14.4119C24.5582 13.929 24.7145 13.3153 24.7088 12.571ZM40.4993 8.10511L38.1896 8.5142C38.093 8.21875 37.9396 7.9375 37.7294 7.67045C37.5249 7.40341 37.2464 7.18466 36.8942 7.0142C36.5419 6.84375 36.1016 6.75852 35.5732 6.75852C34.8516 6.75852 34.2493 6.92045 33.7663 7.24432C33.2834 7.5625 33.0419 7.97443 33.0419 8.48011C33.0419 8.91761 33.2038 9.26989 33.5277 9.53693C33.8516 9.80398 34.3743 10.0227 35.0959 10.1932L37.1754 10.6705C38.38 10.9489 39.2777 11.3778 39.8686 11.9574C40.4595 12.5369 40.755 13.2898 40.755 14.2159C40.755 15 40.5277 15.6989 40.0732 16.3125C39.6243 16.9205 38.9964 17.3977 38.1896 17.7443C37.3885 18.0909 36.4595 18.2642 35.4027 18.2642C33.9368 18.2642 32.7408 17.9517 31.8146 17.3267C30.8885 16.696 30.3203 15.8011 30.1101 14.642L32.5732 14.267C32.7266 14.9091 33.0419 15.3949 33.5192 15.7244C33.9964 16.0483 34.6186 16.2102 35.3857 16.2102C36.2209 16.2102 36.8885 16.0369 37.3885 15.6903C37.8885 15.3381 38.1385 14.9091 38.1385 14.4034C38.1385 13.9943 37.9851 13.6506 37.6783 13.3722C37.3771 13.0937 36.9141 12.8835 36.2891 12.7415L34.0732 12.2557C32.8516 11.9773 31.9482 11.5341 31.3629 10.9261C30.7834 10.3182 30.4936 9.5483 30.4936 8.61648C30.4936 7.84375 30.7095 7.16761 31.1413 6.58807C31.5732 6.00852 32.1697 5.55682 32.9311 5.23295C33.6925 4.90341 34.5646 4.73864 35.5476 4.73864C36.9624 4.73864 38.076 5.04545 38.8885 5.65909C39.701 6.26705 40.2379 7.08239 40.4993 8.10511ZM49.071 18.2642C47.804 18.2642 46.7131 17.9773 45.7983 17.4034C44.8892 16.8239 44.1903 16.0256 43.7017 15.0085C43.2131 13.9915 42.9688 12.8267 42.9688 11.5142C42.9688 10.1847 43.2188 9.01136 43.7188 7.99432C44.2188 6.97159 44.9233 6.1733 45.8324 5.59943C46.7415 5.02557 47.8125 4.73864 49.0455 4.73864C50.0398 4.73864 50.9261 4.9233 51.7045 5.29261C52.483 5.65625 53.1108 6.16761 53.5881 6.8267C54.071 7.4858 54.358 8.25568 54.4489 9.13636H51.9688C51.8324 8.52273 51.5199 7.99432 51.0312 7.55114C50.5483 7.10795 49.9006 6.88636 49.0881 6.88636C48.3778 6.88636 47.7557 7.07386 47.2216 7.44886C46.6932 7.81818 46.2813 8.34659 45.9858 9.03409C45.6903 9.71591 45.5426 10.5227 45.5426 11.4545C45.5426 12.4091 45.6875 13.233 45.9773 13.9261C46.267 14.6193 46.6761 15.1562 47.2045 15.5369C47.7386 15.9176 48.3665 16.108 49.0881 16.108C49.571 16.108 50.0085 16.0199 50.4006 15.8438C50.7983 15.6619 51.1307 15.4034 51.3977 15.0682C51.6705 14.733 51.8608 14.3295 51.9688 13.858H54.4489C54.358 14.7045 54.0824 15.4602 53.6222 16.125C53.1619 16.7898 52.5455 17.3125 51.7727 17.6932C51.0057 18.0739 50.1051 18.2642 49.071 18.2642ZM60.9837 18.2898C60.1541 18.2898 59.4041 18.1364 58.7337 17.8295C58.0632 17.517 57.532 17.0653 57.1399 16.4744C56.7536 15.8835 56.5604 15.1591 56.5604 14.3011C56.5604 13.5625 56.7024 12.9545 56.9865 12.4773C57.2706 12 57.6541 11.6222 58.1371 11.3438C58.62 11.0653 59.1598 10.8551 59.7564 10.7131C60.353 10.571 60.9609 10.4631 61.5803 10.3892C62.3643 10.2983 63.0007 10.2244 63.4893 10.1676C63.978 10.1051 64.3331 10.0057 64.5547 9.86932C64.7763 9.73295 64.8871 9.51136 64.8871 9.20455V9.14489C64.8871 8.40057 64.6768 7.82386 64.2564 7.41477C63.8416 7.00568 63.2223 6.80114 62.3984 6.80114C61.5405 6.80114 60.8643 6.99148 60.37 7.37216C59.8814 7.74716 59.5433 8.16477 59.3558 8.625L56.9609 8.07955C57.245 7.28409 57.6598 6.64205 58.2053 6.15341C58.7564 5.65909 59.3899 5.30114 60.1058 5.07954C60.8217 4.85227 61.5746 4.73864 62.3643 4.73864C62.8871 4.73864 63.4411 4.80114 64.0263 4.92614C64.6172 5.04545 65.1683 5.26705 65.6797 5.59091C66.1967 5.91477 66.62 6.37784 66.9496 6.98011C67.2791 7.5767 67.4439 8.35227 67.4439 9.30682V18H64.9553V16.2102H64.853C64.6882 16.5398 64.4411 16.8636 64.1115 17.1818C63.782 17.5 63.3587 17.7642 62.8416 17.9744C62.3246 18.1847 61.7053 18.2898 60.9837 18.2898ZM61.5376 16.2443C62.2422 16.2443 62.8445 16.1051 63.3445 15.8267C63.8501 15.5483 64.2337 15.1847 64.495 14.7358C64.7621 14.2812 64.8956 13.7955 64.8956 13.2784V11.5909C64.8047 11.6818 64.6286 11.767 64.3672 11.8466C64.1115 11.9205 63.8189 11.9858 63.4893 12.0426C63.1598 12.0937 62.8388 12.142 62.5263 12.1875C62.2138 12.2273 61.9524 12.2614 61.7422 12.2898C61.2479 12.3523 60.7962 12.4574 60.3871 12.6051C59.9837 12.7528 59.6598 12.9659 59.4155 13.2443C59.1768 13.517 59.0575 13.8807 59.0575 14.3352C59.0575 14.9659 59.2905 15.4432 59.7564 15.767C60.2223 16.0852 60.8161 16.2443 61.5376 16.2443ZM70.8381 18V4.90909H73.3011V6.98864H73.4375C73.6761 6.28409 74.0966 5.73011 74.6989 5.3267C75.3068 4.91761 75.9943 4.71307 76.7614 4.71307C76.9205 4.71307 77.108 4.71875 77.3239 4.73011C77.5455 4.74148 77.7188 4.75568 77.8438 4.77273V7.21023C77.7415 7.18182 77.5597 7.15057 77.2983 7.11648C77.0369 7.0767 76.7756 7.05682 76.5142 7.05682C75.9119 7.05682 75.375 7.18466 74.9034 7.44034C74.4375 7.69034 74.0682 8.03977 73.7955 8.48864C73.5227 8.93182 73.3864 9.4375 73.3864 10.0057V18H70.8381Z" fill="#FBFBFB"/>
</svg>
